<svg xmlns="http://www.w3.org/2000/svg" viewBox="0 0 132 132" id="young-man">
  <path fill="#dbb38e" d="M45.76,93.87H85.85V77.11c-2-1.16-4.1-2.33-4.1-2.33l-3.43-2-.94-6-25.7,2.85.21,3.74-6.13,3Z"></path>
  <path fill="#c49776" d="M85.85,77.12v12l-6.1,4.57L51.81,71.92l-.12-2.09v-.15l.61-.06,25.09-2.79,1,6,3.42,2S83.83,76,85.85,77.12Z"></path>
  <path fill="#26385f" d="M85.85,94.87H45.76a1,1,0,0,1-1-1V76.45a1,1,0,0,1,.56-.89l5.54-2.74-.18-3.08a1,1,0,0,1,.89-1l25.7-2.86a1,1,0,0,1,1.1.84l.87,5.49,3,1.76h0s2.08,1.17,4.09,2.33a1,1,0,0,1,.5.86V93.87A1,1,0,0,1,85.85,94.87Zm-39.09-2H84.85V77.69l-3.59-2-3.44-2a1,1,0,0,1-.48-.7l-.8-5L52.73,70.57l.16,2.8a1,1,0,0,1-.55.95l-5.58,2.76Z"></path>
  <path fill="#dbb38e" d="M47.45,24.9c-1.82.61-3.67,5.88-4,7.76-1.53,7.9-4.83,30.93,6.85,38.17C62.36,78.32,77.76,68.74,79,64.21A23.33,23.33,0,0,0,80,57.35l1-4.25c10.54-12.17,3.67-24.75-4.53-25.27C74.81,27.72,55.33,22.25,47.45,24.9Z"></path>
  <path fill="#cca17b" d="M80.75,54.16c-.67-.76-.06-3.06-.17-4.12l-.14,2.36c.16,1-1.84,5.78-2.66,8.88-1.19,4.53-16.6,14.11-28.68,6.62a15,15,0,0,1-5.57-6.46c1.28,4,3.39,7.32,6.74,9.39,12.1,7.5,27.49-2.09,28.68-6.62A23.46,23.46,0,0,0,80,57.34Z"></path>
  <path fill="#26385f" d="M60.22,74.61a19.55,19.55,0,0,1-10.47-2.93c-12-7.44-9.11-29.9-7.31-39.21.3-1.58,2.74-8.39,5.27-9.24h0c6.52-2.19,19.66,1.25,26,2.9,1.27.33,2.57.68,2.85.7,4.06.26,7.85,3.22,9.67,7.55,2.49,5.94.89,13.1-4.29,19.18L81,57.4a26.52,26.52,0,0,1-1.11,7.07c-.71,2.71-5,6.17-10.17,8.23A26.35,26.35,0,0,1,60.22,74.61ZM53,24.52a15.12,15.12,0,0,0-4.69.61h0c-1.12.37-3.52,5.57-3.94,7.72C43.06,39.8,39.55,63,50.8,70c6.93,4.3,14.39,2.38,18.22.86,4.94-2,8.5-5.1,9-6.88a22.48,22.48,0,0,0,1-6.46,1,1,0,0,1,0-.38l1-4.25a.93.93,0,0,1,.22-.43c6.91-8,5.18-14.75,4.11-17.29-1.52-3.63-4.64-6.12-7.95-6.33a24.65,24.65,0,0,1-3.22-.75C68.74,26.91,59.62,24.52,53,24.52Zm-5-.34h0Z"></path>
  <path fill="#26385f" d="M68.06 44.79a1 1 0 0 1-.59-.2 8.49 8.49 0 0 0-7.27-1.45 1 1 0 1 1-.63-1.89A10.38 10.38 0 0 1 68.66 43a1 1 0 0 1 .21 1.4A1 1 0 0 1 68.06 44.79zM41.22 43.09a1 1 0 0 1-.8-.4 1 1 0 0 1 .2-1.4 10.38 10.38 0 0 1 9.09-1.74 1 1 0 0 1-.63 1.9 8.39 8.39 0 0 0-7.26 1.44A1 1 0 0 1 41.22 43.09z"></path>
  <ellipse cx="63.35" cy="49.2" fill="#26385f" rx="1.11" ry="1.96"></ellipse>
  <path fill="#26385f" d="M63.35 52.16c-1.2 0-2.11-1.27-2.11-3s.91-3 2.11-3 2.11 1.28 2.11 3S64.55 52.16 63.35 52.16zm0-3.66a2.13 2.13 0 0 0-.11.7 2 2 0 0 0 .11.69 2 2 0 0 0 .11-.69A2.13 2.13 0 0 0 63.35 48.5zM60.62 47.33a5.13 5.13 0 0 1 4.91.8"></path>
  <path fill="#26385f" d="M65.53,49.13a1,1,0,0,1-.6-.19A4.1,4.1,0,0,0,61,48.25a1,1,0,0,1-.81-1.83,6.1,6.1,0,0,1,5.91.91,1,1,0,0,1,.21,1.4A1,1,0,0,1,65.53,49.13Z"></path>
  <ellipse cx="46.92" cy="46.87" fill="#26385f" rx="1.11" ry="1.96"></ellipse>
  <path fill="#26385f" d="M46.92 49.83c-1.2 0-2.11-1.27-2.11-3s.91-3 2.11-3 2.1 1.28 2.1 3S48.12 49.83 46.92 49.83zm0-3.66a2.13 2.13 0 0 0-.11.7 2.07 2.07 0 0 0 .11.69 2.1 2.1 0 0 0 .1-.69A2.17 2.17 0 0 0 46.92 46.17zM49.09 45a5.13 5.13 0 0 0-4.91.8"></path>
  <path fill="#26385f" d="M44.18 46.8a1 1 0 0 1-.8-.4 1 1 0 0 1 .2-1.4 6.1 6.1 0 0 1 5.91-.91 1 1 0 0 1-.8 1.83 4.13 4.13 0 0 0-3.92.68A.92.92 0 0 1 44.18 46.8zM53.75 58.66a2.15 2.15 0 0 1-1.21-.35 2.66 2.66 0 0 1-1-2.53 1 1 0 0 1 1.06-1 1 1 0 0 1 .94 1.05 1.37 1.37 0 0 0 .11.77c.06 0 .38 0 1-.27a1 1 0 0 1 .84 1.82A4.31 4.31 0 0 1 53.75 58.66zM55.63 64.93a5.78 5.78 0 0 1-1.1-.11A5.88 5.88 0 0 1 51 62.55a1 1 0 0 1 .27-1.39 1 1 0 0 1 1.38.27c.22.32 2.24 3 6.21.32A1 1 0 0 1 60 63.41 7.86 7.86 0 0 1 55.63 64.93z"></path>
  <path fill="#a67e73" d="M77.12,43.81c.07-.22.16-.44.25-.65-.13.83-.19,1.36-.19,1.36C77.16,44.27,77.13,44,77.12,43.81Z"></path>
  <path fill="#708fc3" d="M111.8,113.64a8.06,8.06,0,0,1-4.75,7.28,88.73,88.73,0,0,1-41.83,8,96.38,96.38,0,0,1-14.29-1.76c-.35-.09-.7-.13-1-.2l-2.76-.62a106.57,106.57,0,0,1-22.43-8,8.07,8.07,0,0,1-4.49-7.48c0-1.52.14-3.35.31-5.47.55-6.66-.28-13.87,7.5-19.15a99.19,99.19,0,0,1,8.56-5.06c3.13-1.69,6.31-3.29,8.9-4.57l.06,0,2.29-1.13A17.13,17.13,0,0,0,57.93,86.89c9.3,3.63,21-1.43,26.07-10.84l3.61,2.08.08.05c4.5,2.63,10.1,6.08,15.27,9.71C110.78,93.36,111.85,106.4,111.8,113.64Z"></path>
  <path fill="#89a2cc" d="M109.62,97.7l0,0a88.68,88.68,0,0,1-41.82,8,95.72,95.72,0,0,1-14.29-1.75c-.36-.1-.71-.14-1.06-.21-.93-.19-1.86-.41-2.76-.61a106.92,106.92,0,0,1-22.42-8A8,8,0,0,1,23.35,91,15.44,15.44,0,0,1,28,86.22a99.19,99.19,0,0,1,8.56-5.06c3.13-1.69,6.31-3.29,8.9-4.57l.06,0,2.29-1.13A17.13,17.13,0,0,0,57.93,86.89c9.3,3.63,21-1.43,26.07-10.84l3.61,2.08.08.05c4.5,2.63,10.1,6.08,15.27,9.71C106.22,90.17,108.3,93.76,109.62,97.7Z"></path>
  <path fill="#26385f" d="M69.92,130c-1.57,0-3.16,0-4.75-.12-.08,0-9.14-.47-14.48-1.79-.19-.05-.37-.08-.55-.11l-.47-.08-2.43-.54-.34-.08a107.33,107.33,0,0,1-22.65-8.07,9.11,9.11,0,0,1-5.05-8.4c.05-1.78.16-3.64.32-5.53.07-.91.12-1.84.17-2.77.31-5.76.65-12.3,7.76-17.12a97.41,97.41,0,0,1,8.65-5.11c2.57-1.39,5.5-2.89,8.93-4.58l2.34-1.15a1,1,0,0,1,.84,0,1,1,0,0,1,.56.63A16.16,16.16,0,0,0,58.29,86c8.78,3.42,19.91-1.23,24.83-10.38a1,1,0,0,1,1.38-.39l1,.56,2.64,1.52.09.06c3.93,2.29,9.8,5.86,15.33,9.74,8.17,5.72,9.31,19.11,9.26,26.58a9.1,9.1,0,0,1-5.34,8.18A89.28,89.28,0,0,1,69.92,130ZM47.23,76.85,46,77.47c-3.46,1.7-6.36,3.19-8.91,4.57a97.47,97.47,0,0,0-8.48,5c-6.28,4.26-6.57,9.75-6.88,15.56-.05,1-.1,1.9-.18,2.84-.15,1.85-.26,3.67-.31,5.42a7.1,7.1,0,0,0,3.94,6.55,105.24,105.24,0,0,0,22.21,7.91l.34.08,2.4.53.39.07c.23,0,.47.08.71.14a93.17,93.17,0,0,0,14.08,1.73A87.68,87.68,0,0,0,106.63,120a7.08,7.08,0,0,0,4.17-6.37h0c0-7.08-1-19.73-8.41-24.94C96.91,84.86,91.1,81.33,87.18,79l-.1-.06-2.6-1.5-.11-.06C78.76,86.83,67,91.49,57.56,87.82A17.88,17.88,0,0,1,47.23,76.85Z"></path>
  <path fill="#696d85" d="M91.05,35.49c-.3-6.1-1.48-12.18-4.06-14.21s-6.18-4.51-6.18-4.51l1.72-3.16c-2.65-1.87-8.78-.4-8.78-.4l.56-2.61a10.5,10.5,0,0,0-6.56,1.67l.85-4.11c-3-.19-9.85,1.49-9.85,1.49l1.41-2.82a10.66,10.66,0,0,0-3.42,1V32.11c3.15-.44,6.88-1.95,11-5,.42-.32,5.3,1.31,6.53,4.5s0,16.54,0,16.54l5.13.39c.35-3.19,3.82-2.59,4.46-2,2,1.75-2,6.52-4.47,9.12H84a4.15,4.15,0,0,0,3.68-2.31A30.27,30.27,0,0,0,90,47.21,38.46,38.46,0,0,0,91.05,35.49Z"></path>
  <path fill="#5b5e7c" d="M85.77,41.36a5.07,5.07,0,0,0-3.47-1c-2,.3-3.29,2.28-4.28,4.07.88-4.64,1.71-9.66-.3-13.94-1.64-3.49-4.86-5.82-8.23-7.81a3.12,3.12,0,0,0-3.8.51,11.94,11.94,0,0,1-3.23,2.27v4.88a31.39,31.39,0,0,0,5.29-3.22c.42-.32,5.3,1.31,6.53,4.5s0,16.54,0,16.54l5.13.39c.35-3.19,3.82-2.59,4.46-2,2,1.75-2,6.52-4.47,9.12H84a4.15,4.15,0,0,0,3.68-2.31A30.27,30.27,0,0,0,90,47.21,10.53,10.53,0,0,0,85.77,41.36Z"></path>
  <path fill="#26385f" d="M84,56.63H79.39a1,1,0,0,1-.92-.6A1,1,0,0,1,78.66,55c3-3.19,4.78-5.9,4.72-7.23a.55.55,0,0,0-.19-.46,2.58,2.58,0,0,0-2,0,1.56,1.56,0,0,0-.85,1.39,1,1,0,0,1-1.06.89l-5.13-.38a1,1,0,0,1-.69-.35,1,1,0,0,1-.23-.74c.34-3.65,1-13.66.07-16.09s-4.28-3.71-5.25-3.88c-4,2.92-7.85,4.62-11.48,5.06a1,1,0,0,1-.78-.25,1,1,0,0,1-.34-.74V8A1,1,0,0,1,56,7.08a11.82,11.82,0,0,1,4-1.24,1,1,0,0,1,.94.42,1,1,0,0,1,.08,1l-.47.92a37.89,37.89,0,0,1,8.07-1,1,1,0,0,1,.92,1.2l-.43,2.06a11.13,11.13,0,0,1,5.26-.81,1,1,0,0,1,.71.41,1,1,0,0,1,.17.8l-.24,1.13c2.13-.35,5.91-.67,8,.85a1,1,0,0,1,.31,1.29l-1.29,2.38c1.2.85,3.64,2.57,5.49,4C91,23.13,91.83,31,92.06,35.43A36.34,36.34,0,0,1,88.6,53.77,5.11,5.11,0,0,1,84,56.63Zm-2.39-2H84a3.12,3.12,0,0,0,2.78-1.76,34.3,34.3,0,0,0,3.25-17.34h0c-.35-6.89-1.73-11.93-3.69-13.47-2.45-1.93-6.09-4.44-6.12-4.46a1,1,0,0,1-.32-1.3L81.16,14c-2.13-.76-5.78-.18-7.17.15A1,1,0,0,1,72.78,13l.3-1.44a9.51,9.51,0,0,0-4.75,1.53,1,1,0,0,1-1.56-1l.6-2.91A61.34,61.34,0,0,0,59,10.62a1,1,0,0,1-1-.35,1,1,0,0,1-.11-1.07l.46-.93c-.28.1-.55.2-.82.32V31a25,25,0,0,0,9.65-4.68c.4-.3.94-.31,1.86,0,1.66.48,5.1,2.14,6.2,5s.43,12.63.15,16l3.25.24a3.35,3.35,0,0,1,2-2.14,4.32,4.32,0,0,1,3.91.46,2.59,2.59,0,0,1,.85,1.87C85.45,49.3,84.19,51.65,81.64,54.63Z"></path>
  <path fill="#dbb38e" d="M84.6,44.36c-2.18-.54-4.93,3.19-5.88,7l-.9,4.17a10.25,10.25,0,0,0,2.46,2.61c2.89,2.06,5.64-3.29,6.6-7.06S86.78,44.91,84.6,44.36Z"></path>
  <path fill="#26385f" d="M81.59,59.56a3.28,3.28,0,0,1-1.89-.64,4.17,4.17,0,0,1-1.44-2.08,1,1,0,0,1,1.89-.66,2.2,2.2,0,0,0,.71,1.11,1.12,1.12,0,0,0,1.13.19c1.53-.56,3.2-3.84,3.92-6.68a6.1,6.1,0,0,0-.16-4.44,2.24,2.24,0,0,0-1.39-1c-.73-.18-2.94-.73-4,3.43a1,1,0,0,1-1.22.72,1,1,0,0,1-.72-1.21c1.4-5.5,4.95-5.24,6.41-4.88a4.18,4.18,0,0,1,2.62,1.94c.87,1.46,1,3.52.39,6s-2.45,7.07-5.18,8.07A3.17,3.17,0,0,1,81.59,59.56Z"></path>
  <path fill="#9fc98a" d="M44.53,21.27s-6.22-5-1.61-9.63A30,30,0,0,1,64.6,3c9.43.2,18.26,4.81,22.87,8.22s10.44,6.22,9.84,11S95.1,34.91,92.49,35.92l-1.41,3S85.67,31.5,80.45,30.5c0,0-5.62,9.23-13.85,7.42s-23.37-6.36-27.49-5.21c-1.41.39-5.62,3.81-5.62,1.2S43.12,26.39,44,24.8A7,7,0,0,0,44.53,21.27Z"></path>
  <path fill="#ecaa63" d="M44.53,21.27s-6.22-5-1.61-9.63A30,30,0,0,1,64.6,3c9.43.2,18.26,4.81,22.87,8.22s10.44,6.22,9.84,11S95.1,34.91,92.49,35.92l-1.41,3S85.67,31.5,80.45,30.5c0,0-5.62,9.23-13.85,7.42s-23.37-6.36-27.49-5.21c-1.41.39-5.62,3.81-5.62,1.2S43.12,26.39,44,24.8A7,7,0,0,0,44.53,21.27Z"></path>
  <path fill="#e39a4b" d="M97.3,22.28c-.6,4.8-2.2,12.64-4.81,13.63l-1.41,3S85.67,31.5,80.45,30.5c0,0-5.62,9.23-13.85,7.43S43.23,31.56,39.11,32.7c-1.41.4-5.62,3.82-5.62,1.21,0-1.4,2.78-3.47,5.48-5.32,5.21-.36,18.8,3.69,26.45,5.37,8.23,1.8,13.85-7.43,13.85-7.43,5.21,1,10.64,8.43,10.64,8.43l1.4-3c2.6-1,4.21-8.83,4.82-13.65,0,0,0-.09,0-.14A5.61,5.61,0,0,1,97.3,22.28Z"></path>
  <path fill="#26385f" d="M91.08,39.93a1,1,0,0,1-.8-.41c0-.07-4.8-6.51-9.38-7.88-1.5,2.14-6.9,8.93-14.51,7.26-2-.45-4.55-1.06-7.21-1.71-7-1.71-17.59-4.31-19.74-3.54a11.37,11.37,0,0,0-1.32.7c-1.73,1-3.53,2-4.76,1.31a1.85,1.85,0,0,1-.87-1.75c0-2,2.8-4,7.08-6.94a23,23,0,0,0,3.51-2.64,5.63,5.63,0,0,0,.46-2.6c-.9-.83-3.16-3.18-3.31-6.06a6.07,6.07,0,0,1,2-4.74A31.11,31.11,0,0,1,64.62,2c9.15.19,18.11,4.47,23.45,8.42.83.61,1.7,1.21,2.56,1.8C94.68,15,98.87,17.85,98.3,22.4c-.47,3.75-1.88,12.4-5,14.26L92,39.35a1,1,0,0,1-.81.57ZM40.6,31.53c3.54,0,10.31,1.58,19,3.72,2.65.64,5.15,1.26,7.17,1.7,7.42,1.62,12.72-6.89,12.78-7a1,1,0,0,1,1-.46c4.19.8,8.35,5.26,10.22,7.51l.72-1.54a1.06,1.06,0,0,1,.55-.51c1.57-.6,3.33-6,4.18-12.83.42-3.34-3.09-5.73-6.8-8.27-.89-.6-1.78-1.21-2.63-1.84C81.79,8.28,73.26,4.19,64.57,4a28.84,28.84,0,0,0-20.94,8.33,4.15,4.15,0,0,0-1.41,3.23c.12,2.19,2.16,4.29,2.94,4.92a1,1,0,0,1,.37.74,7.88,7.88,0,0,1-.69,4c-.42.79-1.71,1.7-4.14,3.35-2,1.36-6.14,4.17-6.21,5.27a13.21,13.21,0,0,0,2.63-1.27,12.22,12.22,0,0,1,1.66-.86A5.6,5.6,0,0,1,40.6,31.53Zm-6.09,2.55h0Z"></path>
  <path fill="#f4bb79" d="M56.12,17.86c-9.91-.23-11.59,3.41-11.59,3.41L44,24.8a65.58,65.58,0,0,1,36.49,5.7l2.76,1.06L85,26.66C77.39,21.53,65.42,18.07,56.12,17.86Z"></path>
  <path fill="#26385f" d="M83.21,32.56a1.13,1.13,0,0,1-.36-.06l-2.76-1.07a65.31,65.31,0,0,0-35.95-5.64,1,1,0,0,1-.88-.27,1,1,0,0,1-.29-.88l.57-3.53a.79.79,0,0,1,.08-.26c.2-.43,2.24-4.24,12.52-4,9.82.22,21.92,3.91,29.44,9A1,1,0,0,1,86,27l-1.81,4.9a1,1,0,0,1-.52.57A1,1,0,0,1,83.21,32.56ZM52.26,23.21A66.35,66.35,0,0,1,80.88,29.6l1.75.67,1.18-3.21c-7.27-4.64-18.52-8-27.71-8.2h0c-8-.19-10.25,2.25-10.62,2.76l-.32,2A58,58,0,0,1,52.26,23.21Z"></path>
  <path fill="#f4bb79" d="M47.22,9.86c6.36-3.63,14.09-4.49,21.29-3.17a48.87,48.87,0,0,1,19.81,9.06,11.55,11.55,0,0,1,3.49,3.54c1.08,2,1,4.33,1,6.57a10.93,10.93,0,0,1-.39,3,3.61,3.61,0,0,1-1.91,2.25,2.2,2.2,0,0,1-2.68-.78,2.92,2.92,0,0,1,.13-2.6,11.27,11.27,0,0,0,1-2.5c.36-2.15-1.5-4.05-3.45-5a26.72,26.72,0,0,0-5.4-1.86L64,14.08a30.54,30.54,0,0,0-8.76-1.44,22.16,22.16,0,0,0-4.77.76c-1.37.35-3,1.2-4.42,1.25C42.78,14.75,45.15,9.86,47.22,9.86Z" opacity=".5"></path>
</svg>
